<svg xmlns="http://www.w3.org/2000/svg" viewBox="0 0 350.61 108.06"><defs><style>.cls-1{fill:#fff;}</style></defs><g id="Livello_2" data-name="Livello 2"><g id="Livello_1-2" data-name="Livello 1"><path class="cls-1" d="M330.63,107.84c-5.87-1.27-9.86-4.83-12.68-10C312.56,87.85,307,78,301.57,68c-2.94-5.32-7.71-7.62-13-6.27a21.21,21.21,0,0,0-5,2.27c-2.13,1.18-4.27,2.33-6.38,3.54a3.25,3.25,0,0,1-1.7.44c-2.16,0-4.32-.09-6.47,0-.9,0-1-.31-1-1.1,0-8.71,0-17.43.05-26.14,0-1.15-.34-1.41-1.4-1.35s-2.47.47-3.12-.17-.19-2.12-.22-3.23,0-2.48,0-3.71c0-.7.24-.91.9-.88s1.6-.06,2.39,0c1.12.12,1.51-.2,1.48-1.41-.09-3.79,0-7.59-.05-11.39,0-.86.16-1.19,1.1-1.15,2.24.07,4.48.05,6.72,0,.75,0,.94.23.93,1,0,3.95,0,7.91,0,11.87,0,.92.27,1.15,1.15,1.12,2-.06,3.92,0,5.88,0,.66,0,.9.15.89.86,0,2.12,0,4.24,0,6.35,0,.63-.18.83-.82.82-2,0-4,0-6,0-.94,0-1.11.29-1.11,1.15q.06,9.84,0,19.67c0,1,.06,1.33,1.11.7,1.81-1.08,3.67-2.08,5.55-3A16.65,16.65,0,0,1,306,64.64c5.95,10.61,11.8,21.27,17.67,31.92a11.43,11.43,0,0,0,17,3.54,11.28,11.28,0,0,0,3-14.63c-1.34-2.49-2.72-5-4-7.47-.39-.75-.79-.84-1.51-.44-3.29,1.85-3.86,1.71-6-1.36Q319.47,58.58,306.91,41c-.66-.93-.56-1.38.43-1.92q10.7-5.87,21.36-11.8c.9-.5,1.35-.42,1.78.62q8.56,20.52,17.19,41c.82,1.94.4,3.14-1.42,4.22-2.38,1.43-2.37,1.42-1,3.83,1.24,2.23,2.52,4.44,3.66,6.73a16.89,16.89,0,0,1-13.28,24.19c-.22,0-.49-.08-.62.21h-1.68C332.42,107.73,331.5,108.13,330.63,107.84Z"/><path class="cls-1" d="M330.63,107.84a5.12,5.12,0,0,1,2.66.22h-2.64A.18.18,0,0,0,330.63,107.84Z"/><path class="cls-1" d="M41,34.37c0,5.23.16,10.47,0,15.7C40.66,56.8,38.05,62.4,32,65.92a23.12,23.12,0,0,1-14.24,2.67A19.47,19.47,0,0,1,5.59,63.32,18.41,18.41,0,0,1,.12,49.93C0,40.69,0,31.46,0,22.23c0-1.32,0-2.64,0-4,0-.56.16-.78.74-.78,2.56,0,5.12,0,7.68,0,1,0,.7.67.7,1.15,0,7.8,0,15.59,0,23.39a55.6,55.6,0,0,0,.4,9.56c1.26,7.24,6.85,9.31,12,8.87,6.56-.56,10-4.48,10.26-11.54.15-4.39,0-8.79.05-13.19,0-5.68,0-11.35,0-17,0-1,.29-1.26,1.26-1.23,2.28.08,4.56.07,6.84,0,.84,0,1.07.21,1.07,1.06,0,5.27,0,10.55,0,15.83Z"/><path class="cls-1" d="M291.62,17.64c.44-7.06,3.67-12.68,10.5-15.83s13.4-2.09,19.2,2.74c5.2,4.31,6.9,10,6,16.53a1.92,1.92,0,0,1-1.07,1.49q-10.79,5.94-21.56,11.91a2.39,2.39,0,0,1-2.29,0c-6.32-3-9.77-8-10.6-14.84C291.7,19.08,291.68,18.52,291.62,17.64Z"/><path class="cls-1" d="M58.65,36.2c4.17-5.83,11.05-6.3,16.07-4.76a12.54,12.54,0,0,1,8.72,12.09c.16,7.88.06,15.76.09,23.63,0,.63-.19.82-.82.81-2.16,0-4.32-.08-6.48,0-1.12.05-1.47-.21-1.46-1.41.07-6.67,0-13.35,0-20,0-4-2-6.93-5.34-7.75C64.09,37.48,58.67,40.73,58.65,47c0,6.51,0,13,0,19.55,0,1.18-.32,1.47-1.46,1.42-2.08-.1-4.16,0-6.24,0-.68,0-1-.09-1-.89Q50,49.7,50,32.3c0-.67.18-.91.87-.9q3.42.06,6.84,0c.72,0,1,.18,1,.93C58.61,33.53,58.65,34.73,58.65,36.2Z"/><path class="cls-1" d="M233.35,36c4.62-7,17.1-6.86,21.79-.72a14.42,14.42,0,0,1,3.05,8.89c.07,7.63,0,15.26,0,22.9,0,.74-.22.94-1,.93-2.24,0-4.48-.06-6.71,0-.86,0-1-.25-1-1.07,0-6.51,0-13,0-19.54a12.82,12.82,0,0,0-.36-3.44c-1.17-4.26-5.2-6.35-9.74-5.08-4,1.11-6.08,4.08-6.09,8.64,0,6.4,0,12.79,0,19.19,0,1.07-.27,1.35-1.33,1.31-2-.09-4.07-.08-6.11,0-1,0-1.26-.25-1.26-1.25,0-10.67,0-21.34,0-32,0-.76,0-1.52,0-2.28s.13-1.07,1-1q3.36.09,6.72,0c.82,0,1,.27,1,1C233.3,33.61,233.35,34.79,233.35,36Z"/><path class="cls-1" d="M162.31,56c2-4.78,3.94-9.44,5.87-14.11,1.32-3.16,2.64-6.33,3.92-9.5a1.32,1.32,0,0,1,1.47-1c2.24.07,4.48,0,6.72,0,1.3,0,1.31,0,.79,1.21L168.32,62.39c-.68,1.58-1.39,3.14-2,4.73A1.18,1.18,0,0,1,165,68c-1.75,0-3.52-.07-5.27,0a1.41,1.41,0,0,1-1.59-1Q152.63,54,147.07,41.11c-1.26-2.94-2.51-5.87-3.79-8.79-.31-.71-.26-.95.6-.93,2.36.06,4.72.05,7.08,0a1.28,1.28,0,0,1,1.4.94q4.66,11.27,9.39,22.5C161.91,55.2,162.09,55.55,162.31,56Z"/><path class="cls-1" d="M99.52,49.65c0,5.71,0,11.43,0,17.14,0,.95-.24,1.22-1.19,1.19-2.2-.07-4.4,0-6.6,0-.71,0-1-.16-1-.92q0-17.39,0-34.77c0-.69.21-.9.89-.89,2.28,0,4.56.05,6.83,0,.9,0,1,.32,1,1.11C99.5,38.22,99.52,43.93,99.52,49.65Z"/><path class="cls-1" d="M204.54,51.89c-4.35,0-8.71,0-13.07,0-.92,0-1.05.3-.93,1.1a9.86,9.86,0,0,0,9.2,8.31c4.17.35,7.94-.53,11-3.6.43-.42.68-.46,1.13,0q2,2.05,4.13,4c.52.48.43.76,0,1.22a19.84,19.84,0,0,1-12.78,5.82A22.22,22.22,0,0,1,193,67.35c-6.83-2.75-10.37-8-11.13-15.13a20.6,20.6,0,0,1,1.73-11.34c3.24-6.67,8.78-9.9,16-10.42a17.78,17.78,0,0,1,19.24,19.61c-.15,1.82-.15,1.82-2,1.82Zm4.68-6.15c.7,0,.89-.19.79-.89a6.92,6.92,0,0,0-1.66-3.65c-3.17-3.75-9.08-4.46-13.53-1.6a8.92,8.92,0,0,0-4,5.19c-.2.74,0,1,.77,1,2.91,0,5.83,0,8.75,0S206.26,45.71,209.22,45.74Z"/><path class="cls-1" d="M100.31,22.06a5.2,5.2,0,1,1-5.2-5.15A5.2,5.2,0,0,1,100.31,22.06Z"/><path class="cls-1" d="M128.29,51.89c-4.31,0-8.63,0-12.95,0-.92,0-1.22.14-1,1.17,1,5.26,5.18,8.45,11,8.32a12.38,12.38,0,0,0,9.07-3.66c.48-.49.79-.44,1.25,0,1.28,1.32,2.58,2.62,3.94,3.85.63.56.55.86,0,1.39a19.89,19.89,0,0,1-12.94,5.77,21.53,21.53,0,0,1-11.5-2.11c-6.24-3.2-9.14-8.55-9.59-15.36a20.06,20.06,0,0,1,2.77-12.17c3.42-5.53,8.57-8.17,14.92-8.62,11.44-.82,20.23,8,19.41,19.45-.14,2-.14,2-2.15,2Zm4.4-6.13c1.11,0,1.25-.35,1-1.31a7.09,7.09,0,0,0-1.64-3.27c-3-3.25-6.65-4-10.8-2.76a9.24,9.24,0,0,0-6.68,6.39c-.24.78,0,.95.73.94,2.92,0,5.83,0,8.75,0S129.82,45.68,132.69,45.76Z"/></g></g></svg>