<?xml version="1.0" encoding="utf-8"?>
<!-- Generator: Adobe Illustrator 24.1.1, SVG Export Plug-In . SVG Version: 6.00 Build 0)  -->
<svg version="1.1" id="Livello_1" xmlns="http://www.w3.org/2000/svg" xmlns:xlink="http://www.w3.org/1999/xlink" x="0px" y="0px"
	 viewBox="0 0 350.6 108.1" style="enable-background:new 0 0 350.6 108.1;" xml:space="preserve">
<g id="Livello_2_1_">
	<g id="Livello_1-2">
		<path d="M330.6,107.8c-5.9-1.3-9.9-4.8-12.7-10c-5.4-10-11-19.8-16.4-29.8c-2.9-5.3-7.7-7.6-13-6.3c-1.8,0.5-3.4,1.3-5,2.3
			c-2.1,1.2-4.3,2.3-6.4,3.5c-0.5,0.3-1.1,0.5-1.7,0.4c-2.2,0-4.3-0.1-6.5,0c-0.9,0-1-0.3-1-1.1c0-8.7,0-17.4,0-26.1
			c0-1.2-0.3-1.4-1.4-1.3s-2.5,0.5-3.1-0.2s-0.2-2.1-0.2-3.2s0-2.5,0-3.7c0-0.7,0.2-0.9,0.9-0.9s1.6-0.1,2.4,0
			c1.1,0.1,1.5-0.2,1.5-1.4c-0.1-3.8,0-7.6,0-11.4c0-0.9,0.2-1.2,1.1-1.1c2.2,0.1,4.5,0,6.7,0c0.8,0,0.9,0.2,0.9,1c0,4,0,7.9,0,11.9
			c0,0.9,0.3,1.1,1.1,1.1c2-0.1,3.9,0,5.9,0c0.7,0,0.9,0.1,0.9,0.9c0,2.1,0,4.2,0,6.3c0,0.6-0.2,0.8-0.8,0.8c-2,0-4,0-6,0
			c-0.9,0-1.1,0.3-1.1,1.2c0,6.6,0,13.1,0,19.7c0,1,0.1,1.3,1.1,0.7c1.8-1.1,3.7-2.1,5.5-3c8.1-4.4,18.1-1.4,22.5,6.6
			c6,10.6,11.8,21.3,17.7,31.9c3,5.5,10,7.5,15.5,4.5c0.5-0.3,1-0.6,1.5-1c4.5-3.4,5.8-9.7,3-14.6c-1.3-2.5-2.7-5-4-7.5
			c-0.4-0.8-0.8-0.8-1.5-0.4c-3.3,1.8-3.9,1.7-6-1.4c-8.5-11.7-16.9-23.5-25.3-35.2c-0.7-0.9-0.6-1.4,0.4-1.9
			c7.1-3.9,14.3-7.8,21.4-11.8c0.9-0.5,1.4-0.4,1.8,0.6c5.7,13.7,11.4,27.3,17.2,41c0.8,1.9,0.4,3.1-1.4,4.2c-2.4,1.4-2.4,1.4-1,3.8
			c1.2,2.2,2.5,4.4,3.7,6.7c4.1,8.4,0.6,18.5-7.8,22.6c-1.7,0.8-3.6,1.4-5.5,1.6c-0.2,0-0.5-0.1-0.6,0.2h-1.7
			C332.4,107.7,331.5,108.1,330.6,107.8z"/>
		<path d="M330.6,107.8c0.9-0.2,1.8-0.1,2.7,0.2h-2.6C330.7,108,330.7,107.9,330.6,107.8z"/>
		<path d="M41,34.4c0,5.2,0.2,10.5,0,15.7c-0.3,6.7-3,12.3-9,15.8c-4.3,2.4-9.3,3.3-14.2,2.7c-4.5-0.3-8.9-2.1-12.2-5.3
			C2,59.8,0,55,0.1,49.9C0,40.7,0,31.5,0,22.2c0-1.3,0-2.6,0-4c0-0.6,0.2-0.8,0.7-0.8c2.6,0,5.1,0,7.7,0c1,0,0.7,0.7,0.7,1.1
			c0,7.8,0,15.6,0,23.4c-0.1,3.2,0,6.4,0.4,9.6c1.3,7.2,6.8,9.3,12,8.9c6.6-0.6,10-4.5,10.3-11.5c0.1-4.4,0-8.8,0-13.2
			c0-5.7,0-11.4,0-17c0-1,0.3-1.3,1.3-1.2c2.3,0.1,4.6,0.1,6.8,0c0.8,0,1.1,0.2,1.1,1.1C41,23.8,41,29.1,41,34.4L41,34.4z"/>
		<path d="M291.6,17.6c0.4-7.1,3.7-12.7,10.5-15.8s13.4-2.1,19.2,2.7c5.2,4.3,6.9,10,6,16.5c-0.1,0.6-0.5,1.2-1.1,1.5
			c-7.2,4-14.4,7.9-21.6,11.9c-0.7,0.4-1.6,0.4-2.3,0c-6.3-3-9.8-8-10.6-14.8C291.7,19.1,291.7,18.5,291.6,17.6z"/>
		<path d="M58.7,36.2c4.2-5.8,11.1-6.3,16.1-4.8c5.2,1.7,8.8,6.6,8.7,12.1c0.2,7.9,0.1,15.8,0.1,23.6c0,0.6-0.2,0.8-0.8,0.8
			c-2.2,0-4.3-0.1-6.5,0c-1.1,0.1-1.5-0.2-1.5-1.4c0.1-6.7,0-13.3,0-20c0-4-2-6.9-5.3-7.8c-5.3-1.3-10.8,1.9-10.8,8.2
			c0,6.5,0,13,0,19.6c0,1.2-0.3,1.5-1.5,1.4c-2.1-0.1-4.2,0-6.2,0c-0.7,0-1-0.1-1-0.9c0-11.6,0-23.2,0-34.8c0-0.7,0.2-0.9,0.9-0.9
			c2.3,0,4.6,0,6.8,0c0.7,0,1,0.2,1,0.9C58.6,33.5,58.7,34.7,58.7,36.2z"/>
		<path d="M233.4,36c4.6-7,17.1-6.9,21.8-0.7c2,2.5,3.1,5.7,3,8.9c0.1,7.6,0,15.3,0,22.9c0,0.7-0.2,0.9-1,0.9c-2.2,0-4.5-0.1-6.7,0
			c-0.9,0-1-0.3-1-1.1c0-6.5,0-13,0-19.5c0-1.2-0.1-2.3-0.4-3.4c-1.2-4.3-5.2-6.3-9.7-5.1c-4,1.1-6.1,4.1-6.1,8.6
			c0,6.4,0,12.8,0,19.2c0,1.1-0.3,1.3-1.3,1.3c-2-0.1-4.1-0.1-6.1,0c-1,0-1.3-0.3-1.3-1.3c0-10.7,0-21.3,0-32c0-0.8,0-1.5,0-2.3
			s0.1-1.1,1-1c2.2,0.1,4.5,0.1,6.7,0c0.8,0,1,0.3,1,1C233.3,33.6,233.4,34.8,233.4,36z"/>
		<path d="M162.3,56c2-4.8,3.9-9.4,5.9-14.1c1.3-3.2,2.6-6.3,3.9-9.5c0.2-0.7,0.8-1.1,1.5-1c2.2,0.1,4.5,0,6.7,0
			c1.3,0,1.3,0,0.8,1.2l-12.8,29.8c-0.7,1.6-1.4,3.1-2,4.7c-0.1,0.6-0.7,1-1.3,0.9c-1.8,0-3.5-0.1-5.3,0c-0.7,0.1-1.4-0.3-1.6-1
			c-3.7-8.7-7.4-17.3-11.1-25.9c-1.3-2.9-2.5-5.9-3.8-8.8c-0.3-0.7-0.3-1,0.6-0.9c2.4,0.1,4.7,0,7.1,0c0.6-0.1,1.2,0.3,1.4,0.9
			c3.1,7.5,6.2,15,9.4,22.5C161.9,55.2,162.1,55.5,162.3,56z"/>
		<path d="M99.5,49.7c0,5.7,0,11.4,0,17.1c0,0.9-0.2,1.2-1.2,1.2c-2.2-0.1-4.4,0-6.6,0c-0.7,0-1-0.2-1-0.9c0-11.6,0-23.2,0-34.8
			c0-0.7,0.2-0.9,0.9-0.9c2.3,0,4.6,0,6.8,0c0.9,0,1,0.3,1,1.1C99.5,38.2,99.5,43.9,99.5,49.7z"/>
		<path d="M204.5,51.9c-4.4,0-8.7,0-13.1,0c-0.9,0-1.1,0.3-0.9,1.1c0.7,4.6,4.6,8.1,9.2,8.3c4.2,0.3,7.9-0.5,11-3.6
			c0.4-0.4,0.7-0.5,1.1,0c1.3,1.4,2.7,2.7,4.1,4c0.5,0.5,0.4,0.8,0,1.2c-3.4,3.4-8,5.5-12.8,5.8c-3.5,0.3-7-0.1-10.2-1.4
			c-6.8-2.8-10.4-8-11.1-15.1c-0.5-3.9,0.1-7.8,1.7-11.3c3.2-6.7,8.8-9.9,16-10.4c9.8-0.9,18.4,6.4,19.3,16.1c0.1,1.2,0.1,2.3,0,3.5
			c-0.1,1.8-0.1,1.8-2,1.8H204.5z M209.2,45.7c0.7,0,0.9-0.2,0.8-0.9c-0.2-1.4-0.8-2.6-1.7-3.7c-3.2-3.8-9.1-4.5-13.5-1.6
			c-1.9,1.2-3.4,3-4,5.2c-0.2,0.7,0,1,0.8,1c2.9,0,5.8,0,8.8,0S206.3,45.7,209.2,45.7L209.2,45.7z"/>
		<path d="M100.3,22.1c0,2.9-2.3,5.2-5.1,5.2c-2.9,0-5.2-2.3-5.2-5.1c0-2.9,2.3-5.2,5.1-5.2c0,0,0,0,0,0
			C98,16.9,100.3,19.2,100.3,22.1z"/>
		<path d="M128.3,51.9c-4.3,0-8.6,0-12.9,0c-0.9,0-1.2,0.1-1,1.2c1,5.3,5.2,8.5,11,8.3c3.4,0.1,6.7-1.2,9.1-3.7
			c0.5-0.5,0.8-0.4,1.3,0c1.3,1.3,2.6,2.6,3.9,3.8c0.6,0.6,0.6,0.9,0,1.4c-3.5,3.4-8.1,5.5-12.9,5.8c-4,0.4-7.9-0.4-11.5-2.1
			c-6.2-3.2-9.1-8.5-9.6-15.4c-0.4-4.2,0.6-8.5,2.8-12.2c3.4-5.5,8.6-8.2,14.9-8.6c11.4-0.8,20.2,8,19.4,19.5c-0.1,2-0.1,2-2.1,2
			L128.3,51.9z M132.7,45.8c1.1,0,1.3-0.3,1-1.3c-0.3-1.2-0.8-2.3-1.6-3.3c-3-3.3-6.7-4-10.8-2.8c-3.2,0.8-5.8,3.2-6.7,6.4
			c-0.2,0.8,0,1,0.7,0.9c2.9,0,5.8,0,8.8,0S129.8,45.7,132.7,45.8L132.7,45.8z"/>
	</g>
</g>
</svg>
