<?xml version="1.0" encoding="UTF-8"?> <svg xmlns="http://www.w3.org/2000/svg" xmlns:xlink="http://www.w3.org/1999/xlink" version="1.1" id="Livello_1" x="0px" y="0px" viewBox="0 0 752.4 488.6" style="enable-background:new 0 0 752.4 488.6;" xml:space="preserve"> <style type="text/css"> .st0{fill:#23618D;} </style> <g> <g> <path d="M150.8,480.5h-18.4l-4,7.3h-3.6l15-27.3h3.7l15,27.3h-3.7L150.8,480.5z M149.2,477.5l-7.6-14l-7.6,14H149.2z"></path> <path d="M209.8,460.5v27.3h-3.3v-22.7l-13.9,16.8h-0.2l-13.9-16.8v22.7h-3.2v-27.3h3.6l13.7,16.7l13.7-16.7H209.8z"></path> <path d="M252.6,480.5h-18.4l-4,7.3h-3.6l15-27.3h3.7l15,27.3h-3.7L252.6,480.5z M251,477.5l-7.6-14l-7.6,14H251z"></path> <path d="M301.3,484.7v3h-24.2v-27.3h3.3v24.3H301.3z"></path> <path d="M321.7,463.5v9.6H341v3h-19.3v11.7h-3.3v-27.3h26v3H321.7z"></path> <path d="M362.1,487.8v-27.3h3.3v27.3H362.1z"></path> <path d="M435.5,480.3l3.1,1.6c-2.6,4.1-7.3,6.7-14,6.7c-10.2,0-16.4-5.6-16.4-14.5c0-8.9,6.2-14.5,16.5-14.5 c6.6,0,11.3,2.7,13.9,6.7l-3.1,1.6c-2.1-3.6-6-5.2-10.8-5.2c-7.9,0-13.1,3.9-13.1,11.4s5.2,11.4,13.1,11.4 C429.5,485.6,433.4,484,435.5,480.3z"></path> <path d="M454.3,474.1c0-8.9,6.2-14.5,16.6-14.5c10.4,0,16.6,5.6,16.6,14.5c0,8.9-6.2,14.5-16.6,14.5 C460.5,488.6,454.3,483,454.3,474.1z M484.1,474.1c0-7.3-5.2-11.4-13.3-11.4c-8,0-13.3,4.1-13.3,11.4c0,7.3,5.2,11.4,13.3,11.4 C478.9,485.6,484.1,481.5,484.1,474.1z"></path> <path d="M527.3,480.5h-18.4l-4,7.3h-3.6l15-27.3h3.7l15,27.3h-3.7L527.3,480.5z M525.7,477.5l-7.6-14l-7.6,14H525.7z"></path> <path d="M578.3,479.9c0,5-5.1,8.7-14,8.7c-6,0-11.7-1.9-16-5.6l2.3-2.5c4,3.5,8.4,5,13.8,5c6.6,0,10.5-2.1,10.5-5.5 c0-3.3-4-4.1-11.4-4.8c-7.3-0.6-14.3-2.2-14.3-7.6c0-5.1,6.5-8.1,13.8-8.1c5.9,0,10.8,2.1,14,4.9l-2.6,2.2c-2.7-2.6-6.7-4-11.2-4 c-4.9,0-10.6,1.3-10.6,4.9c0,3.4,5.1,4.1,11.6,4.6C572.5,472.9,578.3,474.5,578.3,479.9z"></path> <path d="M621,463.4h-12.9v24.3h-3.3v-24.3H592v-3H621V463.4z"></path> </g> <g> <path d="M164.1,306.3v10.1h-47.8v-51.1H128v41H164.1z"></path> <path d="M242,306.3v10.1h-47.8v-51.1h11.7v41H242z"></path> <path d="M267,290.8c0-17.1,12.6-27.2,32.5-27.2s32.5,10.1,32.5,27.2S319.4,318,299.5,318S267,307.9,267,290.8z M320.1,290.8 c0-10.9-8-17.1-20.6-17.1s-20.6,6.1-20.6,17.1s7.9,17.1,20.6,17.1C312.1,307.9,320.1,301.8,320.1,290.8z"></path> <path d="M367.1,265.3l17.2,23.9l17.2-23.9h13.2l-24.6,33.7v17.4h-11.7v-17.4l-24.6-33.7H367.1z"></path> <path d="M502.4,290.8c0,15.9-12.3,25.5-31.6,25.5h-27.2v-51.1h27.2C490.1,265.3,502.4,274.9,502.4,290.8z M490.5,290.8 c0-10.5-8.3-15.6-20.6-15.6h-14.6v31.2h14.6C482.2,306.5,490.5,301.4,490.5,290.8z"></path> <path d="M545.8,271.5c0,4.9-3.1,11.8-9.3,16l-2.6-3.2c3.4-3,5.3-5.4,6.1-8.5c-0.3,0.3-0.9,0.4-1.8,0.4c-3.5,0-6.4-2.6-6.4-6.1 c0-3.4,2.8-6.1,6.8-6.1C543,264,545.8,267.3,545.8,271.5z"></path> <path d="M632.7,300.9c0,10.1-9.6,17.1-27.7,17.1c-12.9,0-23.4-3.6-31.2-10.3l6.7-8c6.3,5.8,14.4,8.5,24.8,8.5 c10.4,0,15.6-2,15.6-6.2c0-4.2-5.3-5.4-17-6.4c-14.6-1.2-28.2-4.5-28.2-15.4c0-10.7,11.4-16.5,27.2-16.5c11.2,0,20.8,2.8,27.3,7.8 l-6.4,8.1c-5.6-4.3-12.6-6.1-20.9-6.1c-6.9-0.1-15.4,1.2-15.4,5.8c0,4.4,7.3,4.8,17.4,5.6C621.3,286.2,632.7,289.7,632.7,300.9z"></path> <path d="M58,390c0,9.1-7.7,14-20,14H0v-51.1h35.1c12.3,0,20,4.8,20,13.1c0,5.8-3.8,10.8-11.4,11.3C51.8,377.7,58,381.9,58,390z M11.5,373.6h21.7c6.4,0,10.3-1,10.3-5.8c0-4.7-3.9-5.8-10.3-5.8H11.5V373.6z M46.1,388.7c0-5.2-3.9-6.1-10.4-6.1H11.5v12.3h24.1 C42.2,394.8,46.1,393.8,46.1,388.7z"></path> <path d="M130.4,393.2H99.5L94,404H81.5l27.1-51.1h12.8l27.1,51.1h-12.6L130.4,393.2z M125.5,383.7l-10.6-20.8l-10.6,20.8H125.5z"></path> <path d="M177.3,404v-51.1H189V404H177.3z"></path> <path d="M266.7,393.2h-30.9l-5.5,10.8h-12.5l27.1-51.1h12.8l27.1,51.1h-12.6L266.7,393.2z M261.8,383.7l-10.6-20.8l-10.6,20.8 H261.8z"></path> <path d="M411.5,352.9V404h-11.7v-20.8H365V404h-11.7v-51.1H365V373h34.8v-20.1H411.5z"></path> <path d="M443.8,378.4c0-17.1,12.6-27.2,32.5-27.2c19.9,0,32.5,10.1,32.5,27.2s-12.6,27.2-32.5,27.2 C456.4,405.6,443.8,395.5,443.8,378.4z M496.9,378.4c0-10.9-8-17.1-20.6-17.1c-12.6,0-20.6,6.1-20.6,17.1s7.9,17.1,20.6,17.1 C489,395.5,496.9,389.4,496.9,378.4z"></path> <path d="M590.1,363h-22.3v41H556v-41h-22.2v-10.1h56.2V363z"></path> <path d="M672.6,394.2v9.8H620v-51.1h51.9v9.8h-40.3v10.5h33.7v9.8h-33.7v11.2H672.6z"></path> <path d="M752.4,393.9V404h-47.8v-51.1h11.7v41H752.4z"></path> </g> <g> <path class="st0" d="M480.8,15.1c-0.9,0-1.9,0.3-3.1,1c-6.3,3.7-98,92.5-98.4,92.4c0-1.9,31.5-49.8,48.9-74.1 c9.4-12.9,12.5-17.4,12.5-19.4c0-0.9-0.5-1.4-1.3-2c-0.5-0.4-1.1-0.7-1.6-0.7c-9.1,0-114.5,97.2-117.4,97.1 c0-1.3,15.7-26.9,26.8-43.6c22.6-34.2,30.5-47.2,30.5-55.3c0-4.7-2.6-7.9-7.9-9.4C366.8,0.3,362,0,356,0 c-29.2,0-86.3,8.8-87.5,10.7c-0.3,0.5-0.4,1-0.4,1.4c0,1.2,1,1.8,2.4,2.1l15.1-2.3c0.1,0,0.1,0,0.2,0c0,0,36.1-6.4,66.6-6.4 c14.7,0,20.1,1.5,20.1,5.5c0,14.5-58.9,91.1-58.9,102c0,2.1,1.9,3.9,3.6,3.9h0.5c8.6-2.5,107.3-93.2,111.2-93.2 c0,0-48.2,70.1-55.7,84.9c-1,1.7-1.3,3.2-1.3,4.4c0,2.6,2,3.5,3.1,3.5c0.8,0,1.7-0.3,3.1-1c8.1-4.2,95.5-89.3,95.5-89 C463.9,44.6,356,187.5,356,199.6c0,0.5,0.2,1,0.4,1.3c0.2,0.2,1.1,0.4,2,0.4c2.6,0,6.2-4.6,6.4-8.1c0.1-1.5,1.9-4.8,5.4-10.2 c26-39.5,104.8-145.7,112-161.6c0.8-1.5,1.1-2.7,1.1-3.7C483.3,16.1,482.3,15.1,480.8,15.1z"></path> </g> </g> </svg> 