<?xml version="1.0" encoding="utf-8"?>
<!-- Generator: Adobe Illustrator 24.1.1, SVG Export Plug-In . SVG Version: 6.00 Build 0)  -->
<svg version="1.1" id="Livello_1" xmlns="http://www.w3.org/2000/svg" xmlns:xlink="http://www.w3.org/1999/xlink" x="0px" y="0px"
	 viewBox="0 0 4896 1946.73" style="enable-background:new 0 0 4896 1946.73;" xml:space="preserve">
<style type="text/css">
	.st0{fill:#171717;}
	.st1{fill:#FFFFFF;}
</style>
<g>
	<path class="st0" d="M5295.97-258.6c0,835.93,0,1671.86,0,2507.79c-1902.99,0-3805.97,0-5708.96,0c0-835.93,0-1671.86,0-2507.79
		c4.22-0.12,8.44-0.35,12.65-0.35c1894.55-0.02,3789.1-0.01,5683.65,0C5287.53-258.95,5291.75-258.72,5295.97-258.6z"/>
	<path class="st1" d="M3088.76,1129.71c-2.46,1.17-4.68,2.2-6.88,3.28c-9.44,4.66-12.57,3.91-19.06-4.62
		c-0.76-0.99-1.47-2.02-2.2-3.03c-33.53-46.7-67.07-93.4-100.59-140.1c-6.64-9.25-6.57-9.52,3.23-14.95
		c26.46-14.65,52.93-29.29,79.41-43.93c1.53-0.85,3.11-1.6,4.65-2.43c2.8-1.5,4.82-0.54,6.19,2.07c0.81,1.54,1.44,3.19,2.11,4.8
		c22.38,53.18,44.75,106.36,67.12,159.54c0.68,1.61,1.35,3.23,1.95,4.87c3.07,8.48,1.99,12.35-5.5,17.17
		c-10.59,6.82-9.18,7.02-4.09,16.3c4.57,8.32,9.33,16.55,13.59,25.03c19.96,39.65,0.99,87.2-43.64,99.81
		c-30.27,8.55-57.1-3.58-74.63-26.86c-4.49-5.96-8.16-12.57-11.78-19.12c-20.41-36.97-40.69-74.01-61.02-111.01
		c-4.47-8.13-9.31-15.93-16.73-21.88c-12.78-10.25-27.12-13.16-42.21-7.24c-11.33,4.45-22.21,10.32-32.72,16.52
		c-9.59,5.66-19.23,9.27-30.52,7.78c-3.43-0.45-7,0.17-10.5,0.06c-2.41-0.08-4.8-0.57-8.03-0.98c0-3.57,0-6.51,0-9.46
		c0.04-31.49,0.07-62.98,0.11-94.47c0-2,0.07-4-0.03-6c-0.28-5.86-1.51-6.92-7.36-6.51c-12.49,0.89-12.6,0.74-12.22-11.83
		c0.15-4.99-0.02-10,0.13-14.99c0.17-5.59,0.96-6.35,6.68-6.53c3.73-0.12,7.46-0.02,12.07-0.02c0.32-3.39,0.82-6.25,0.83-9.11
		c0.04-13.24-0.09-26.49-0.08-39.74c0.01-7.73,0.5-8.2,7.94-8.24c7.26-0.04,14.51-0.09,21.77,0.02c5.83,0.08,6.42,0.62,6.47,6.52
		c0.1,13.74,0.02,27.49,0.06,41.24c0.01,2.69,0.26,5.38,0.44,8.99c4.4,0.18,8.28,0.42,12.17,0.49c5,0.1,10.01,0,15.01,0.11
		c2.74,0.06,5.03,1.02,5.05,4.27c0.06,9.2,0.02,18.39,0.02,28.01c-2.62,0.42-4.52,0.94-6.42,0.99c-5.5,0.13-11.01,0.04-16.51,0.07
		c-9.65,0.06-9.76,0.15-9.77,9.49c-0.02,15.99-0.01,31.99-0.01,47.98c0,8-0.04,15.99,0.03,23.99c0.02,2.39,0.33,4.77,0.56,7.95
		c2.69-1.24,4.47-1.96,6.15-2.84c6.65-3.47,13.31-6.91,19.88-10.52c30.9-16.95,73.72-9.12,94.25,28.22
		c15.17,27.59,30.51,55.08,45.76,82.62c8.72,15.74,17.21,31.6,26.18,47.2c9.24,16.08,23.52,24.55,42.02,24.16
		c33.21-0.71,56.32-34.86,41.27-66.3c-5.28-11.03-11.39-21.67-17.2-32.45C3091.38,1132.66,3090.11,1131.44,3088.76,1129.71z"/>
	<path class="st1" d="M1732.77,883.81c0,3.78,0,6.23,0,8.69c-0.05,33.74-0.33,67.48-0.03,101.22c0.1,11.19,0.7,22.55,2.77,33.52
		c3.46,18.35,15.15,29.23,33.73,32.51c10.64,1.88,20.99,0.72,30.91-3.31c17.23-6.99,23.81-21.36,25.05-38.56
		c0.86-11.94,0.58-23.98,0.59-35.97c0.04-28.99-0.05-57.98-0.08-86.97c0-1.5-0.06-3.01,0.07-4.5c0.47-5.39,1.5-6.45,6.98-6.52
		c8.26-0.11,16.52-0.11,24.77,0.01c5.24,0.07,5.99,0.91,6.41,6.07c0.06,0.75,0.04,1.5,0.04,2.25c0.06,39.74,0.23,79.47,0.07,119.21
		c-0.03,7.45-0.84,15-2.26,22.31c-5.15,26.36-20.49,44.67-45.53,54.26c-28.87,11.05-57.53,10.14-84.55-5.44
		c-22.4-12.91-34.49-33.32-35.64-59c-1.22-27.2-0.91-54.46-1.14-81.7c-0.14-16.49-0.05-32.99-0.02-49.48
		c0.02-8.4,0.15-8.53,8.22-8.56C1712.59,883.78,1722.05,883.81,1732.77,883.81z"/>
	<path class="st1" d="M3041.85,888.72c0-0.75-0.06,0.25,0.01,1.24c0.67,8.97-3.07,14.51-11.35,18.86
		c-25.88,13.6-51.4,27.88-76.8,42.35c-7.33,4.18-13.42,4.48-20.84,0.15c-20.52-11.97-32.65-29.29-37.19-52.59
		c-8.46-43.39,23.71-85.3,73.61-86.27c22.88-0.44,41.22,10.82,56.14,27.57C3037.28,853.36,3042.18,869.3,3041.85,888.72z"/>
	<path class="st1" d="M2165.73,1026.42c0.41,19.04,14.74,32.46,28.76,35.74c18.75,4.38,36.25,2.25,51.28-11.1
		c4.41-3.92,5.03-3.84,9.26,0.28c5.49,5.35,10.87,10.81,16.65,16.58c-2.01,2.21-3.38,3.95-4.98,5.43
		c-29.81,27.45-79.49,29.33-111.34,4.2c-9.65-7.61-16.74-17.17-20.86-28.75c-7.07-19.9-8.38-40.12-1.23-60.2
		c10.65-29.89,32.14-46.85,63.65-50.67c19.49-2.36,38.03,0.84,54.24,12.55c23.34,16.85,32.42,40.34,30.66,68.5
		c-0.36,5.75-1.61,6.79-8.41,6.83c-13.76,0.08-27.51-0.11-41.27-0.14c-19.76-0.05-39.52-0.08-59.28-0.04
		C2170.46,1025.64,2168.06,1026.15,2165.73,1026.42z M2244.55,998.65c-0.98-16.7-17.44-30.66-36.02-30.58
		c-19.4,0.09-39.88,11.07-41.7,30.69C2172.67,1000.61,2238.22,1000.64,2244.55,998.65z"/>
	<path class="st1" d="M2478.78,1026.39c0.22,2.61,0.15,4.59,0.58,6.45c3.94,17.34,19.08,29.81,36.91,31.02
		c16.95,1.16,32.33-2.07,44.94-14.31c0.68-0.66,1.67-0.98,3.41-1.97c6.83,6.6,13.71,13.25,21.37,20.67
		c-4.51,3.98-7.96,7.51-11.88,10.43c-27.38,20.38-68.58,22.11-97.71,4.32c-14.94-9.13-25.07-21.98-30.06-38.74
		c-4.87-16.35-5.82-32.9-1.61-49.54c8.06-31.8,32.43-53.01,65.07-56.84c28.16-3.31,52.02,4.75,69.96,27.21
		c12.21,15.29,17.33,32.99,15.32,52.55c-0.78,7.59-1.14,7.84-8.73,7.91c-10.25,0.1-20.51,0.03-30.76,0.03
		c-22.26,0-44.52-0.03-66.78,0.04C2485.64,1025.63,2482.47,1026.1,2478.78,1026.39z M2557.94,999.68
		c-0.32-19.07-19.31-33.11-40.7-31.67c-17.07,1.15-38.64,16.22-36.35,31.67C2506.4,999.68,2531.93,999.68,2557.94,999.68z"/>
	<path class="st1" d="M2654.1,942.02c0.26,5.48,0.49,10.17,0.73,15.21c3.02,0,4.02-2.67,5.63-4.22
		c21.79-20.96,64.52-19.15,83.35,3.71c7.68,9.33,12.51,20.16,12.65,32.22c0.4,32.98,0.18,65.97,0.17,98.95
		c0,0.72-0.33,1.44-0.65,2.77c-1.66,0.37-3.51,1.11-5.38,1.15c-7.75,0.14-15.51,0.18-23.26,0.02c-5.9-0.12-6.68-0.97-6.7-7.28
		c-0.07-23.24-0.02-46.48-0.04-69.72c0-4.5-0.02-9-0.24-13.49c-0.84-16.78-11.49-28.9-26.59-30.37
		c-18.28-1.78-33.94,8.35-37.74,24.81c-1.11,4.81-1.48,9.89-1.51,14.84c-0.15,23.24-0.07,46.48-0.07,69.72c0,2-0.05,4-0.03,6
		c0.04,3.33-1.64,5.32-4.9,5.38c-8.75,0.14-17.5,0.12-26.25,0c-2.86-0.04-4.66-1.69-4.85-4.67c-0.13-1.99-0.13-3.99-0.13-5.99
		c-0.01-43.23-0.01-86.47,0-129.7c0-2-0.32-4.11,0.23-5.96c0.42-1.4,1.93-3.45,3.05-3.51C2632.22,941.3,2642.9,941.1,2654.1,942.02z
		"/>
	<path class="st1" d="M2038,1090.78c-1.53,0.31-2.73,0.75-3.93,0.76c-8.25,0.09-16.51,0.18-24.76,0.08
		c-5.63-0.07-6.54-1.06-6.81-6.52c-0.09-1.74-0.02-3.5-0.02-5.25c0-23.73,0.01-47.46-0.01-71.2c0-3,0.06-6.01-0.22-8.99
		c-1.93-20.78-18.92-32.85-39.31-28.02c-16.14,3.83-26.03,15.84-26.23,32.95c-0.3,24.73-0.1,49.46-0.12,74.19
		c-0.01,12.96-0.01,12.94-12.72,12.74c-5-0.08-10,0.05-15-0.02c-2.44-0.03-4.87-0.31-7.91-0.52c-0.2-2.94-0.5-5.35-0.5-7.77
		c0.01-44.47,0.06-88.93,0.11-133.4c0-1.25,0.05-2.5,0.05-3.75c-0.01-2.98,1.39-4.84,4.43-4.87c9-0.09,18.01-0.08,27.01-0.02
		c3.46,0.02,4.78,2.03,4.68,5.36c-0.11,3.88-0.03,7.77-0.03,13.38c2.79-2.98,4.38-4.81,6.11-6.49c21.58-20.81,59.96-20.21,80.94,1.2
		c9.16,9.35,14.37,20.72,14.57,33.59c0.52,33.22,0.31,66.44,0.36,99.67C2038.68,1088.61,2038.35,1089.33,2038,1090.78z"/>
	<path class="st1" d="M2283.05,941.91c2.88-0.35,4.97-0.81,7.07-0.84c7-0.09,14.01-0.01,21.01-0.02c8.69-0.02,8.97,0.09,12.27,7.98
		c11.28,26.94,22.51,53.91,33.77,80.85c1.44,3.43,3,6.82,5.02,11.4c1.43-2.8,2.48-4.58,3.27-6.47
		c11.78-28.35,23.53-56.72,35.26-85.09c3.57-8.63,3.69-8.73,13.31-8.69c6.25,0.03,12.51-0.02,18.76-0.04c2.43,0,4.86,0,8.7,0
		c-1.23,3.46-1.88,5.71-2.8,7.85c-17.78,41.53-35.59,83.04-53.38,124.56c-1.67,3.9-3.51,7.75-4.87,11.75
		c-1.7,4.99-4.8,7.15-10.13,6.77c-4.73-0.34-9.5-0.11-14.25-0.07c-8.37,0.07-9.23-0.41-12.46-7.93
		c-6.31-14.68-12.54-29.39-18.83-44.08c-12.88-30.06-25.79-60.11-38.67-90.18C2285.13,947.45,2284.31,945.15,2283.05,941.91z"/>
	<path class="st1" d="M2068.67,942.03c2.21-0.35,4.11-0.88,6.01-0.91c7.49-0.1,14.99-0.14,22.48-0.01c6.36,0.11,7.09,0.88,7.17,7.61
		c0.15,12.97,0.21,25.94,0.23,38.91c0.05,31.43,0.06,62.86,0.09,94.29c0,0.75,0.01,1.5-0.01,2.24c-0.2,6.58-0.89,7.42-7.31,7.55
		c-7.49,0.14-14.98,0.09-22.47-0.01c-1.92-0.02-3.84-0.53-6.19-0.89C2068.67,1041.11,2068.67,991.84,2068.67,942.03z"/>
	<path class="st1" d="M2085.96,881.87c11.82-0.17,21.61,9.3,21.78,21.06c0.16,11.72-9.39,21.44-21.23,21.6
		c-11.83,0.16-21.63-9.33-21.77-21.07C2064.6,891.65,2074.04,882.04,2085.96,881.87z"/>
	<path class="st0" d="M2244.55,998.65c-6.34,1.99-71.88,1.96-77.72,0.12c1.82-19.63,22.29-30.61,41.7-30.69
		C2227.11,967.99,2243.58,981.95,2244.55,998.65z"/>
	<path class="st0" d="M2557.94,999.68c-26.01,0-51.54,0-77.05,0c-2.29-15.45,19.28-30.51,36.35-31.67
		C2538.63,966.57,2557.62,980.6,2557.94,999.68z"/>
</g>
</svg>
